<?xml version="1.0" encoding="iso-8859-1"?>
<!-- Generator: Adobe Illustrator 17.1.0, SVG Export Plug-In . SVG Version: 6.00 Build 0)  -->
<!DOCTYPE svg PUBLIC "-//W3C//DTD SVG 1.1//EN" "http://www.w3.org/Graphics/SVG/1.1/DTD/svg11.dtd">
<svg version="1.1" id="Capa_1" xmlns="http://www.w3.org/2000/svg" xmlns:xlink="http://www.w3.org/1999/xlink" x="0px" y="0px"
	 viewBox="0 0 512.001 512.001" style="enable-background:new 0 0 512.001 512.001;" xml:space="preserve">
<g>
	<path fill="#fff" d="M458.619,323.507L142.171,7.059c-4.709-4.71-11.22-7.286-17.907-7.043c-6.63,0.232-12.917,3.226-17.249,8.213
		C65.885,55.588,44.38,116.309,46.462,179.207c2.092,63.203,27.883,122.648,72.622,167.387
		c15.751,15.751,33.332,29.142,52.251,39.989c-11.196,5-19.022,16.233-19.022,29.267c0,8.314,3.185,15.898,8.397,21.599
		c-0.247,0.77-0.383,1.59-0.383,2.442v24.055h-40.11c-13.233,0-24,10.767-24,24v16.055c0,4.418,3.582,8,8,8h160.275
		c4.418,0,8-3.582,8-8v-16.055c0-13.233-10.767-24-24-24h-40.11V439.89c0-0.852-0.136-1.672-0.383-2.443
		c5.212-5.7,8.397-13.284,8.397-21.598c0-3.351-0.519-6.583-1.478-9.621c22.849,7.738,46.913,12.172,71.553,12.988
		c2.787,0.092,5.567,0.138,8.345,0.138c59.906,0,117.373-21.384,162.633-60.693c4.987-4.331,7.98-10.618,8.213-17.248
		C465.897,334.743,463.33,328.216,458.619,323.507z M184.355,399.808c8.845,0,16.042,7.196,16.042,16.042
		s-7.196,16.041-16.042,16.041s-16.042-7.196-16.042-16.041S175.509,399.808,184.355,399.808z M256.492,487.945v8.055H112.217
		v-8.055c0-4.411,3.589-8,8-8h128.275C252.903,479.945,256.492,483.534,256.492,487.945z M176.327,463.945v-17.074
		c2.566,0.665,5.256,1.019,8.027,1.019c2.771,0,5.461-0.354,8.028-1.019v17.074H176.327z M446.958,346.582
		c-42.34,36.772-96.094,56.775-152.147,56.772c-2.595,0-5.206-0.043-7.81-0.129c-59.129-1.958-114.746-26.087-156.603-67.944
		s-65.987-97.474-67.944-156.603c-1.948-58.85,18.168-115.657,56.643-159.957c1.453-1.672,3.488-2.636,5.731-2.715
		c0.1-0.003,0.199-0.005,0.298-0.005c2.17,0,4.197,0.835,5.733,2.372L447.306,334.82c1.606,1.606,2.447,3.749,2.367,6.031
		C449.593,343.094,448.629,345.13,446.958,346.582z"/>
	<path fill="#fff" d="M320.325,152.381c2.047,0,4.095-0.781,5.657-2.343l74.271-74.271c4.719,2.74,10.193,4.317,16.031,4.317
		c17.668,0,32.042-14.374,32.042-32.041c0-17.668-14.374-32.042-32.042-32.042c-17.667,0-32.041,14.374-32.041,32.042
		c0,6.037,1.68,11.688,4.594,16.513l-74.168,74.168c-3.125,3.124-3.125,8.189,0,11.313
		C316.23,151.599,318.278,152.381,320.325,152.381z M416.284,32.001c8.845,0,16.042,7.196,16.042,16.042
		s-7.196,16.041-16.042,16.041s-16.041-7.196-16.041-16.041S407.439,32.001,416.284,32.001z"/>
</g>
<g>
</g>
<g>
</g>
<g>
</g>
<g>
</g>
<g>
</g>
<g>
</g>
<g>
</g>
<g>
</g>
<g>
</g>
<g>
</g>
<g>
</g>
<g>
</g>
<g>
</g>
<g>
</g>
<g>
</g>
</svg>
