<svg width="496" height="496" viewBox="0 0 496 496" fill="none" xmlns="http://www.w3.org/2000/svg">
<path d="M395.613 40H100.387C67.0895 40 40 67.0895 40 100.387V395.613C40 428.911 67.0895 456 100.387 456H395.613C428.911 456 456 428.911 456 395.613V100.387C456 67.0895 428.911 40 395.613 40ZM442.581 395.613C442.581 421.511 421.511 442.581 395.613 442.581H100.387C74.4894 442.581 53.4194 421.511 53.4194 395.613V100.387C53.4194 74.4894 74.4894 53.4194 100.387 53.4194H395.613C421.511 53.4194 442.581 74.4894 442.581 100.387V395.613Z" fill="white"/>
<path d="M422.452 241.29H254.71V73.5484C254.71 69.843 251.706 66.8387 248 66.8387C244.295 66.8387 241.29 69.843 241.29 73.5484V241.29H73.5485C69.8431 241.29 66.8389 244.295 66.8389 248C66.8389 251.705 69.8431 254.71 73.5485 254.71H241.29V422.452C241.29 426.157 244.295 429.161 248 429.161C251.706 429.161 254.71 426.157 254.71 422.452V254.71H422.452C426.157 254.71 429.161 251.705 429.161 248C429.161 244.295 426.157 241.29 422.452 241.29Z" fill="white"/>
<path d="M93.6775 154.065H140.645V201.032C140.645 204.738 143.649 207.742 147.355 207.742C151.06 207.742 154.065 204.738 154.065 201.032V154.065H201.032C204.738 154.065 207.742 151.06 207.742 147.355C207.742 143.649 204.738 140.645 201.032 140.645H154.065V93.6775C154.065 89.972 151.06 86.9678 147.355 86.9678C143.649 86.9678 140.645 89.972 140.645 93.6775V140.645H93.6775C89.972 140.645 86.9678 143.649 86.9678 147.355C86.9678 151.06 89.972 154.065 93.6775 154.065Z" fill="white"/>
<path d="M294.968 154.064H402.323C406.028 154.064 409.032 151.06 409.032 147.355C409.032 143.649 406.028 140.645 402.323 140.645H294.968C291.263 140.645 288.258 143.649 288.258 147.355C288.258 151.06 291.263 154.064 294.968 154.064Z" fill="white"/>
<path d="M402.323 341.936H294.968C291.263 341.936 288.258 344.94 288.258 348.645C288.258 352.351 291.263 355.355 294.968 355.355H402.323C406.028 355.355 409.032 352.351 409.032 348.645C409.032 344.94 406.028 341.936 402.323 341.936Z" fill="white"/>
<path d="M192.358 303.643C189.738 301.022 185.49 301.022 182.87 303.643L147.355 339.157L111.842 303.643C109.222 301.023 104.974 301.023 102.353 303.643C99.7325 306.264 99.7325 310.512 102.353 313.132L137.867 348.645L102.353 384.159C99.7325 386.779 99.7325 391.027 102.353 393.647C103.663 394.958 105.38 395.613 107.097 395.613C108.814 395.613 110.532 394.958 111.842 393.648L147.355 358.134L182.869 393.647C184.179 394.957 185.896 395.612 187.613 395.612C189.331 395.612 191.048 394.957 192.358 393.647C194.979 391.027 194.979 386.779 192.358 384.159L156.844 348.645L192.357 313.132C194.978 310.512 194.978 306.263 192.358 303.643Z" fill="white"/>
<path d="M368.774 308.387C368.774 297.288 359.745 288.258 348.645 288.258C337.546 288.258 328.516 297.288 328.516 308.387C328.516 319.487 337.546 328.516 348.645 328.516C359.745 328.516 368.774 319.487 368.774 308.387ZM341.935 308.387C341.935 304.688 344.946 301.677 348.645 301.677C352.345 301.677 355.355 304.688 355.355 308.387C355.355 312.087 352.345 315.097 348.645 315.097C344.946 315.097 341.935 312.087 341.935 308.387Z" fill="white"/>
<path d="M348.645 368.774C337.546 368.774 328.516 377.804 328.516 388.903C328.516 400.003 337.546 409.032 348.645 409.032C359.745 409.032 368.774 400.003 368.774 388.903C368.774 377.804 359.745 368.774 348.645 368.774ZM348.645 395.613C344.946 395.613 341.935 392.603 341.935 388.903C341.935 385.204 344.946 382.194 348.645 382.194C352.345 382.194 355.355 385.204 355.355 388.903C355.355 392.603 352.345 395.613 348.645 395.613Z" fill="white"/>
</svg>
