<svg width="633" height="290" viewBox="0 0 633 290" fill="none" xmlns="http://www.w3.org/2000/svg">
<path fill-rule="evenodd" clip-rule="evenodd" d="M241.1 79.3195C241.1 79.3195 243.634 77.8525 245.901 79.1864C248.169 80.5203 251.103 83.1877 252.97 83.3208C254.837 83.4539 271.508 58.2474 275.91 49.0447C275.91 49.0447 273.243 38.3756 265.373 35.8409C265.373 35.8409 266.573 37.4415 260.439 41.5759C254.304 45.7106 227.762 60.2471 201.488 85.4541C175.214 110.661 158.543 130.8 161.477 140.67C164.412 150.539 168.412 151.073 168.412 151.073C168.412 151.073 169.479 147.338 173.881 144.004C178.282 140.67 230.162 99.7248 254.036 92.656C254.036 92.656 252.036 99.9915 242.966 111.861C242.966 111.861 239.9 115.863 235.498 120.264C235.498 120.264 244.3 107.726 249.902 97.4571C249.902 97.4571 186.684 171.878 156.809 179.347C156.809 179.347 151.474 178.414 149.073 174.279L148.407 177.747C148.407 177.747 158.81 191.751 161.344 191.884C163.877 192.018 181.283 181.28 185.15 177.813L169.013 193.684C207.678 172.469 228.57 146.354 255.637 110.53C255.637 110.53 273.243 86.3899 270.842 78.388C270.842 78.388 255.238 75.32 190.286 120.133C190.286 120.133 203.623 100.794 233.231 76.7875C233.231 76.7875 257.371 59.3157 262.973 56.9149C262.973 56.9149 255.904 68.2512 253.103 71.4523C250.303 74.6533 258.972 60.7161 258.972 60.7161C258.972 60.7161 247.902 75.2535 241.1 79.3195V79.3195Z" fill="white"/>
<path fill-rule="evenodd" clip-rule="evenodd" d="M323.555 17.8388C323.555 17.8388 323.483 24.1407 315.122 31.4428C306.76 38.7452 276.571 72.489 235.841 137.707C235.841 137.707 234.757 151.311 251.62 158.112C251.62 158.112 248.3 150.212 251.197 144.711C254.093 139.209 262.96 102.507 315.257 50.586C315.257 50.586 324.216 40.5841 330.827 34.6827C330.827 34.6827 330.18 30.3818 328.825 26.2808C327.47 22.1795 323.555 17.8388 323.555 17.8388V17.8388Z" fill="white"/>
<path fill-rule="evenodd" clip-rule="evenodd" d="M287.402 79.6982C287.402 79.6982 313.81 62.9935 322.212 58.8923C330.615 54.791 332.616 53.7911 334.416 53.9907C336.216 54.1903 346.218 62.3608 346.919 63.6613C346.919 63.6613 324.314 72.6964 296.506 107.907C282.385 126.007 282.742 139.585 283.616 158.092C280.593 153.976 271.674 141.08 271.049 138.721C276.029 120.604 282 104.665 311.01 77.0978C311.01 77.0978 282.402 89.3009 271.399 98.8036C271.399 98.8036 291.905 87.7009 302.808 82.5992C302.808 82.5992 274.9 98.3034 268.798 103.105C262.697 107.907 260.996 110.006 264.898 102.104C268.798 94.2027 270.199 92.502 276.101 88.6008C282.002 84.6999 287.402 79.6982 287.402 79.6982V79.6982Z" fill="white"/>
<path fill-rule="evenodd" clip-rule="evenodd" d="M350.206 96.8107C350.206 96.8107 353.419 104.15 353.238 106.081C353.238 106.081 327.485 133.604 303.55 143.648C303.55 143.648 297.372 146.449 291.617 141.041C285.861 135.633 287.686 130.419 288.844 127.714C297.898 106.574 352.567 47.3184 379.369 44.9181C380.865 48.2434 383.515 54.8424 383.671 60.1432C379.322 65.1953 371.524 72.3592 357.66 82.3271C357.66 82.3271 339.916 96.43 319.449 103.848C317.086 106.594 315.293 108.766 314.347 109.924C312.249 112.51 310.118 115.218 307.957 118.06C307.957 118.06 295.576 132.161 300.912 134.479C300.912 134.479 302.801 136.604 317.377 125.884C317.377 125.884 305.62 132.451 303.063 132.741C303.063 132.741 338.521 111.978 348.992 93.1463L349.604 95.6567L350.206 96.8107V96.8107ZM334.896 86.9752C334.896 86.9752 353.434 65.8423 375.306 56.6358C375.306 56.6358 370.049 63.5888 348.07 79.7483C348.07 79.7483 339.523 85.6074 337.693 86.4443C335.862 87.2812 334.896 86.9752 334.896 86.9752Z" fill="white"/>
<path fill-rule="evenodd" clip-rule="evenodd" d="M437.326 9.69873C443.672 18.909 441.974 20.0952 445.128 28.4379C390.881 65.2163 337.268 135.355 344.037 148.137C344.037 148.137 337.234 139.134 337.989 132.132C338.744 125.131 340.371 123.93 340.371 123.93C340.371 123.93 362.648 80.1065 437.326 9.69873V9.69873Z" fill="white"/>
<path fill-rule="evenodd" clip-rule="evenodd" d="M431.397 42.8826C431.397 42.8826 430.355 45.397 423.936 51.5595C417.516 57.7214 375.533 97.2473 361.757 122.435C361.757 122.435 364.518 131.674 367.99 133.229C367.99 133.229 403.077 123.431 430.761 95.5385C458.446 67.6457 449.807 69.2012 449.807 69.2012C449.807 69.2012 435.505 67.3631 412.758 78.6811L412.764 78.6875C416.073 75.5482 419.662 72.221 423.555 68.6978C423.555 68.6978 433.634 59.8041 436.067 55.3068C438.501 50.8096 431.397 42.8826 431.397 42.8826V42.8826ZM405.764 86.2498L405.764 86.2528C405.512 88.2415 405.498 90.207 406.392 90.3665C408.241 90.6964 414.724 85.2093 432.616 78.7358C432.616 78.7358 418.865 99.1051 385.049 113.882C385.049 113.882 397.286 111.025 406.269 105.895C406.269 105.895 388.38 118.652 374.613 122.424C374.613 122.424 379.169 111.641 405.843 85.3725L405.764 86.2498V86.2498Z" fill="white"/>
<path fill-rule="evenodd" clip-rule="evenodd" d="M452.774 43.4875C452.774 43.4875 451.573 53.6909 453.574 57.0916C453.574 57.0916 467.378 45.0886 482.182 39.4867L487.384 37.4856C487.384 37.4856 460.176 53.4905 433.568 96.3023C433.568 96.3023 440.571 88.9003 445.172 84.499C445.172 84.499 436.369 97.9029 435.769 106.705C435.769 106.705 441.17 108.706 443.971 112.107C443.971 112.107 463.177 106.706 481.982 92.9017C489.884 87.1007 471.888 102.747 445.072 124.826C441.341 125.583 438.958 126.09 438.958 126.09L438.952 126.093H438.952C411.835 131.506 381.745 138.661 349.743 148.12C222.508 185.731 229.31 204.536 229.31 204.536C229.31 204.536 234.911 252.549 309.732 238.546C309.732 238.546 287.126 246.152 271.321 243.351C271.321 243.351 288.125 250.954 308.732 245.152C329.338 239.351 358.946 227.747 431.766 158.928C442.625 148.665 453.037 138.725 462.897 129.236C468.136 128.216 472.168 127.438 473.413 127.199H473.414L473.42 127.198C505.273 121.543 537.249 117.442 567.004 115.912L574.007 109.31C574.007 109.31 537.999 109.756 481.092 118.606L481.089 118.606L481.086 118.607C478.604 118.882 475.752 119.28 472.726 119.751C523.567 70.552 553.439 39.7493 553.439 39.7493C545.606 37.2548 555.455 28.1747 542.797 21.2922C542.797 21.2922 480.324 98.5755 449.571 100.915C449.571 100.915 457.44 79.911 516.656 38.6996C516.656 38.6996 513.189 25.296 510.188 25.296C507.187 25.296 475.578 29.2968 452.774 43.4875V43.4875ZM432.192 135.37L430.937 135.636C329.022 157.955 238.636 189.592 243.714 203.136C266.593 264.154 406.903 155.952 432.192 135.37Z" fill="white"/>
<path fill-rule="evenodd" clip-rule="evenodd" d="M39.8858 98.2388C39.8858 98.2388 49.4788 88.4809 53.2612 94.6746C57.0435 100.868 63.1219 115.527 71.4457 115.39C71.4457 115.39 81.9739 107.887 89.1076 107.111C96.2419 106.336 110.214 107.694 117.432 104.333C124.65 100.972 153.044 63.3814 162.214 57.3418C171.384 51.302 189.434 54.4096 189.434 54.4096C189.434 54.4096 169.985 55.5923 164.933 59.0191C159.88 62.4462 151.816 71.7092 151.816 71.7092C151.816 71.7092 157.93 69.7286 159.376 74.8885C160.822 80.0484 159.682 94.9987 159.682 94.9987C159.682 94.9987 167.403 76.1262 171.137 69.8003C171.137 69.8003 156.852 111.291 148.735 130.999C147.345 133.842 146.098 136.658 145.009 139.433C138.693 153.019 135.727 158.253 130.662 159.653C125.27 161.143 120.046 158.998 115.842 161.127C111.639 163.256 111.725 165.274 109.261 163.514C109.261 163.514 111.905 166.687 113.021 166.518C114.135 166.349 119.473 161.87 123.062 162.37C126.65 162.871 139.986 166.424 139.874 162.822L139.874 162.822V162.813C139.885 160.595 140.073 158.303 140.419 155.951C140.011 158.348 139.817 160.613 139.874 162.714C139.799 158.984 140.527 154.613 141.829 149.862C146.205 134.681 157.401 115.584 170.417 97.6532C187.904 75.8663 210.467 55.7952 231.379 44.0236L231.459 43.9713C239.372 38.8591 242.677 34.5127 244.003 31.4412C226.739 27.9153 191.345 23.1425 146.896 30.3899C145.848 30.5389 144.791 30.7145 143.722 30.9168C143.444 30.9671 143.295 30.9984 143.295 30.9984L143.317 30.9946C142.905 31.0751 142.491 31.1595 142.074 31.2484C142.074 31.2484 164.792 28.7511 164.434 33.5996C164.075 38.4483 130.984 66.1768 118.249 77.9756C105.514 89.7747 102.649 91.8536 99.1028 93.1304C99.1028 93.1304 92.0334 95.8038 84.8148 97.6298C77.5965 99.456 75.3032 99.4312 75.3032 99.4312C75.3032 99.4312 65.2342 88.8783 64.295 76.6477C64.295 76.6477 61.8266 64.1451 73.6924 56.5925C85.5585 49.0404 97.0648 43.2669 97.0648 43.2669C97.0648 43.2669 71.5044 54.1036 61.2754 66.3694C51.0459 78.6364 42.3669 91.296 39.8858 98.2388V98.2388ZM69.1084 100.065C69.1084 100.065 67.3355 96.8963 64.3642 93.5223C61.3926 90.1486 59.8861 88.3611 59.0912 88.1952C59.0912 88.1952 59.7123 90.6493 61.242 93.6443C62.772 96.6393 63.3457 97.4022 63.5461 97.7289C63.7465 98.0554 67.2676 98.3182 69.1084 100.065ZM116.421 89.1635C116.421 89.1635 121.415 82.8562 128.89 76.1397C136.365 69.4232 140.19 65.8652 141.849 65.5349C141.849 65.5349 139.478 70.4206 135.049 76.3826C130.619 82.3447 129.124 83.863 128.574 84.5133C128.024 85.1635 120.893 85.6869 116.421 89.1635V89.1635Z" fill="white"/>
<path fill-rule="evenodd" clip-rule="evenodd" d="M95.6358 108.26C95.6358 108.26 112.413 114.849 114.246 130.628C114.246 130.628 116.947 141.392 110.458 161.145C110.458 161.145 111.796 162.63 114.587 160.511C114.587 160.511 117.961 157.885 124.311 158.769C124.311 158.769 131.191 159.994 135.022 154.596C138.852 149.199 147.232 131.392 154.145 110.223C154.145 110.223 160.019 93.8671 157.358 76.4384C157.358 76.4384 154.869 66.8842 141.945 81.4304C129.02 95.9767 120.32 110.05 121.025 120.95C121.731 131.849 128.105 140.529 128.105 140.529C128.105 140.529 115.275 130.358 110.088 116.178L108.217 108.598C108.217 108.598 99.3196 107.77 95.6358 108.26V108.26Z" fill="white"/>
<path fill-rule="evenodd" clip-rule="evenodd" d="M109.915 108.688C109.915 108.688 109.738 116.1 117.514 127.779L122.177 133.239C122.177 133.239 118.34 122.907 119.452 115.831C120.564 108.756 123.852 102.191 123.852 102.191C123.852 102.191 118.557 106.912 115.754 108.203C112.952 109.495 109.915 108.688 109.915 108.688V108.688Z" fill="white"/>
<path fill-rule="evenodd" clip-rule="evenodd" d="M61.6523 111.016C61.6523 111.016 66.379 116.839 69.3729 116.637C72.3669 116.435 78.3001 112.659 79.3293 112.006C80.3588 111.353 76.1269 120.973 76.1495 124.164C76.1721 127.354 79.2549 137.228 83.6097 141.317C83.6097 141.317 73.5308 133.006 68.1551 124.259C62.7795 115.511 61.6523 111.016 61.6523 111.016V111.016Z" fill="white"/>
<path fill-rule="evenodd" clip-rule="evenodd" d="M90.2656 214.754C90.2656 214.754 74.7351 193.052 75.0486 181.822C75.3621 170.593 77.4343 150.224 111.791 152.655C111.791 152.655 122.684 154.115 128.267 150.645C133.85 147.174 143.274 137.982 142.502 122.116C142.502 122.116 140.715 113.485 137.804 109.184C137.804 109.184 143.057 127.564 132.764 141.002C132.764 141.002 124.818 153.616 110.75 151.713C110.75 151.713 84.4083 147.773 65.8039 162.56C47.1992 177.347 43.2081 205.181 48.3542 222.956C48.3542 222.956 39.955 195.106 64.2995 171.234C64.2995 171.234 66.6206 186.726 74.1834 196.044C81.7465 205.362 90.2656 214.754 90.2656 214.754V214.754Z" fill="white"/>
<path fill-rule="evenodd" clip-rule="evenodd" d="M71.6574 64.7842C71.6574 64.7842 90.0561 49.278 109.283 42.1211C128.509 34.9644 155.211 32.5149 155.473 35.9212C155.734 39.3273 117.889 74.287 105.967 83.3615C94.0445 92.436 82.6177 95.4175 78.6088 94.8675C74.5999 94.3174 64.5525 78.7921 71.6574 64.7842V64.7842Z" fill="white"/>
<path fill-rule="evenodd" clip-rule="evenodd" d="M97.078 43.2667C97.078 43.2667 38.0854 64.2401 7.93266 143.862C165.1 366.605 522.226 262.603 614.905 32.632C614.905 32.632 529.537 -22.5836 251.505 27.0302C251.505 27.0302 496.643 -36.1871 632.136 31.0315C632.136 31.0315 567.522 199.878 327.474 289.503C327.474 289.503 130.11 286.302 0.492126 146.664C1.7697 115.85 52.5471 51.6626 97.078 43.2667V43.2667Z" fill="white"/>
<path fill-rule="evenodd" clip-rule="evenodd" d="M156.809 179.347C156.809 179.347 148.689 178.51 141.682 161.834C141.682 161.834 142.928 173.183 153.758 184.564L162.188 183.741L156.809 179.347Z" fill="white"/>
</svg>
