<?xml version="1.0" encoding="iso-8859-1"?>
<!-- Generator: Adobe Illustrator 19.0.0, SVG Export Plug-In . SVG Version: 6.00 Build 0)  -->
<svg version="1.1" id="Layer_1" xmlns="http://www.w3.org/2000/svg" xmlns:xlink="http://www.w3.org/1999/xlink" x="0px" y="0px"
	 viewBox="0 0 496 496" style="enable-background:new 0 0 496 496;" xml:space="preserve">
<g>
	<g>
		<g>
			<path d="M224,0v96H24c-13.232,0-24,10.768-24,24v160c0,13.232,10.768,24,24,24h200v192h272V0H224z M224,288H24
				c-4.416,0-8-3.584-8-8v-96h208V288z M224,168H16v-24h208V168z M224,128H16v-8c0-4.416,3.584-8,8-8h200V128z M480,480H240V16h16
				v16h16V16h16v16h16V16h16v16h16V16h16v16h16V16h16v16h16V16h16v16h16V16h16v16h16V16h16V480z" fill="#fff"/>
			<rect x="336" y="80" width="128" height="16" fill="#fff"/>
			<rect x="336" y="112" width="128" height="16" fill="#fff"/>
			<rect x="432" y="184" width="32" height="16" fill="#fff"/>
			<rect x="256" y="184" width="144" height="16" fill="#fff"/>
			<rect x="432" y="216" width="32" height="16" fill="#fff"/>
			<rect x="256" y="216" width="144" height="16" fill="#fff"/>
			<rect x="432" y="248" width="32" height="16" fill="#fff"/>
			<rect x="256" y="248" width="144" height="16" fill="#fff"/>
			<rect x="432" y="280" width="32" height="16" fill="#fff"/>
			<rect x="256" y="280" width="144" height="16" fill="#fff"/>
			<rect x="432" y="328" width="32" height="16" fill="#fff"/>
			<rect x="336" y="328" width="64" height="16" fill="#fff"/>
			<rect x="256" y="400" width="96" height="16" fill="#fff"/>
			<rect x="432" y="432" width="32" height="16" fill="#fff"/>
			<path d="M72,280c5.52,0,10.88-1.16,16-3.456C93.12,278.84,98.48,280,104,280c22.056,0,40-17.944,40-40c0-22.056-17.944-40-40-40
				c-5.52,0-10.88,1.16-16,3.456C82.88,201.16,77.52,200,72,200c-22.056,0-40,17.944-40,40C32,262.056,49.944,280,72,280z M72,216
				c4.128,0,8.152,1.128,11.976,3.352L88,221.696l4.024-2.344C95.84,217.128,99.872,216,104,216c13.232,0,24,10.768,24,24
				s-10.768,24-24,24c-4.128,0-8.16-1.128-11.976-3.352L88,258.304l-4.024,2.344C80.152,262.872,76.128,264,72,264
				c-13.232,0-24-10.768-24-24S58.768,216,72,216z" fill="#fff"/>
			<path d="M192,336H16v64h16v32H0v64h176v-48h32v-64h-16V336z M32,352h16v16h16v-16h16v16h16v-16h16v16h16v-16h16v16h16v-16h16v32
				H40h-8V352z M160,480H16v-32h16v16h16v-16h16v16h16v-16h16v16h16v-16h16v16h16v-16h16V480z M192,432h-16h-8H48v-32h16v16h16v-16
				h16v16h16v-16h16v16h16v-16h16v16h16v-16h16V432z" fill="#fff"/>
		</g>
	</g>
</g>
<g>
</g>
<g>
</g>
<g>
</g>
<g>
</g>
<g>
</g>
<g>
</g>
<g>
</g>
<g>
</g>
<g>
</g>
<g>
</g>
<g>
</g>
<g>
</g>
<g>
</g>
<g>
</g>
<g>
</g>
</svg>
