<?xml version="1.0" encoding="iso-8859-1"?>
<!-- Generator: Adobe Illustrator 19.0.0, SVG Export Plug-In . SVG Version: 6.00 Build 0)  -->
<svg version="1.1" id="Capa_1" xmlns="http://www.w3.org/2000/svg" xmlns:xlink="http://www.w3.org/1999/xlink" x="0px" y="0px"
	 viewBox="0 0 490 490" style="enable-background:new 0 0 490 490;" xml:space="preserve">
<polygon fill="#fff" points="56.442,335.001 75.359,327.386 30.187,215.162 130.507,215.162 144.366,265.252 371.261,265.252 408.209,215.162 
	457.762,215.162 400.015,336.838 418.434,345.58 490,194.771 397.914,194.771 360.966,244.862 159.878,244.862 146.019,194.771 
	93.478,194.771 123.707,25.335 251.228,25.335 251.228,108.799 271.619,108.799 271.619,4.945 106.632,4.945 72.766,194.771 
	0,194.771 "/>
<path fill="#fff" d="M373.003,376.873c-2.858,1.663-23.532,17.089-37.167,17.089c-9.174,0-26.136-13.162-26.136-13.162
	c-29.839-21.038-63.71-44.843-100.26-36.704c-14.944,3.341-28.674,11.709-41.945,19.808c-19.187,11.703-35.754,21.845-51.554,15.313
	c-4.34-1.786-24.124-16.019-30.466-18.718c-26.235-11.121-53.257,4.397-71.158,14.696l10.175,17.672
	c19.026-10.941,37.406-20.216,53.007-13.601c4.251,1.808,24.124,16.11,30.675,18.809c25.398,10.439,49.035-4.018,69.944-16.768
	c11.848-7.228,24.114-14.71,35.763-17.308c27.738-6.203,62.008,16.551,84.082,33.463c22.092,16.926,34.943,16.926,39.038,16.926
	c17.579,0,31.563-11.454,46.276-19.903c26.374-15.147,56.094-18.807,83.971-9.827l6.253-19.405
	C440.069,354.471,404.366,358.588,373.003,376.873z"/>
<path fill="#fff" d="M373.003,447.54c-2.858,1.663-23.532,17.089-37.167,17.089c-9.174,0-26.136-13.162-26.136-13.162
	c-29.839-21.038-63.71-44.843-100.26-36.704c-14.944,3.341-28.674,11.71-41.945,19.809c-19.187,11.703-35.754,21.844-51.554,15.312
	c-4.34-1.786-24.124-16.019-30.466-18.717c-26.235-11.121-53.257,4.396-71.158,14.695l10.175,17.673
	c19.026-10.942,37.406-20.216,53.007-13.601c4.251,1.808,24.124,16.109,30.675,18.808c25.398,10.439,49.035-4.018,69.944-16.767
	c11.848-7.229,24.114-14.71,35.763-17.309c27.738-6.203,62.008,16.551,84.082,33.463c22.092,16.926,34.943,16.926,39.038,16.926
	c17.579,0,31.563-11.454,46.276-19.903c26.374-15.147,56.094-18.807,83.971-9.827l6.253-19.405
	C440.069,425.138,404.366,429.255,373.003,447.54z"/>
<rect fill="#fff" x="181.932" y="144.403" width="37.196" height="20.391"/>
<rect fill="#fff" x="242.825" y="144.403" width="37.196" height="20.391"/>
<rect fill="#fff" x="303.727" y="144.403" width="37.196" height="20.391"/>
<rect fill="#fff" x="181.932" y="194.771" width="37.196" height="20.391"/>
<rect fill="#fff" x="242.825" y="194.771" width="37.196" height="20.391"/>
<rect fill="#fff" x="303.727" y="194.771" width="37.196" height="20.391"/>
<g>
</g>
<g>
</g>
<g>
</g>
<g>
</g>
<g>
</g>
<g>
</g>
<g>
</g>
<g>
</g>
<g>
</g>
<g>
</g>
<g>
</g>
<g>
</g>
<g>
</g>
<g>
</g>
<g>
</g>
</svg>
