<?xml version="1.0" encoding="iso-8859-1"?>
<!-- Generator: Adobe Illustrator 19.0.0, SVG Export Plug-In . SVG Version: 6.00 Build 0)  -->
<svg version="1.1" id="Capa_1" xmlns="http://www.w3.org/2000/svg" xmlns:xlink="http://www.w3.org/1999/xlink" x="0px" y="0px"
	 viewBox="0 0 490 490" style="enable-background:new 0 0 490 490;" xml:space="preserve">
<path fill="#fff" d="M488.208,228.119L412.964,116.88c-1.939-2.871-5.172-4.587-8.633-4.587H286.879V69.69c0-5.757-4.668-10.425-10.426-10.425
	H10.425C4.668,59.264,0,63.933,0,69.69v294.791c0,5.757,4.668,10.426,10.425,10.426h74.812
	c5.146,31.615,32.631,55.829,65.677,55.829c33.042,0,60.527-24.214,65.673-55.829h58.971h0.896h35.437
	c5.146,31.615,32.632,55.829,65.673,55.829c33.046,0,60.532-24.214,65.678-55.829h36.333c5.757,0,10.426-4.669,10.426-10.426
	V233.959C490,231.877,489.379,229.84,488.208,228.119z M150.915,409.884c-25.197,0-45.702-20.505-45.702-45.703
	c0-25.199,20.505-45.698,45.702-45.698c25.199,0,45.698,20.5,45.698,45.698C196.613,389.379,176.113,409.884,150.915,409.884z
	 M266.028,354.056h-49.333c-4.892-31.905-32.528-56.424-65.78-56.424c-33.256,0-60.893,24.519-65.784,56.424H20.851V80.115h245.177
	V354.056z M285.984,133.144h112.813l61.139,90.389H285.984V133.144z M377.564,409.884c-25.198,0-45.698-20.505-45.698-45.703
	c0-25.199,20.5-45.698,45.698-45.698c25.198,0,45.703,20.5,45.703,45.698C423.267,389.379,402.762,409.884,377.564,409.884z
	 M469.149,354.056h-25.8c-4.892-31.905-32.53-56.424-65.785-56.424c-33.251,0-60.888,24.519-65.78,56.424h-25.8V244.384h183.165
	V354.056z"/>
<path fill="#fff" d="M378.459,350.335l12.956,12.955l-14.743,14.743l-12.955-12.956L378.459,350.335z M137.063,365.077l12.956,12.956
	l14.743-14.743l-12.956-12.955L137.063,365.077z"/>
<g>
</g>
<g>
</g>
<g>
</g>
<g>
</g>
<g>
</g>
<g>
</g>
<g>
</g>
<g>
</g>
<g>
</g>
<g>
</g>
<g>
</g>
<g>
</g>
<g>
</g>
<g>
</g>
<g>
</g>
</svg>
